<mxfile host="app.diagrams.net" agent="Mozilla/5.0 (Windows NT 10.0; Win64; x64) AppleWebKit/537.36 (KHTML, like Gecko) Chrome/129.0.0.0 Safari/537.36" version="24.7.16">
  <diagram name="Página-1" id="MTqiPwXKSIevzz44UziV">
    <mxGraphModel dx="1595" dy="1123" grid="0" gridSize="10" guides="1" tooltips="1" connect="1" arrows="1" fold="1" page="0" pageScale="1" pageWidth="827" pageHeight="1169" math="0" shadow="0">
      <root>
        <mxCell id="0" />
        <mxCell id="1" parent="0" />
        <mxCell id="ZOnOiDZ3vCkssA7ZhaMy-1" style="edgeStyle=none;curved=1;rounded=0;orthogonalLoop=1;jettySize=auto;html=1;entryX=0.5;entryY=0;entryDx=0;entryDy=0;fontSize=12;startSize=8;endSize=8;endArrow=none;endFill=0;" edge="1" parent="1">
          <mxGeometry relative="1" as="geometry">
            <mxPoint x="201" y="144" as="sourcePoint" />
            <mxPoint x="201" y="196" as="targetPoint" />
          </mxGeometry>
        </mxCell>
        <mxCell id="ZOnOiDZ3vCkssA7ZhaMy-2" value="CENTRAL" style="rounded=1;whiteSpace=wrap;html=1;fillColor=#d5e8d4;strokeColor=#82b366;" vertex="1" parent="1">
          <mxGeometry x="142" y="92" width="120" height="51" as="geometry" />
        </mxCell>
        <mxCell id="ZOnOiDZ3vCkssA7ZhaMy-3" value="" style="triangle;whiteSpace=wrap;html=1;rotation=90;" vertex="1" parent="1">
          <mxGeometry x="172" y="220" width="60" height="80" as="geometry" />
        </mxCell>
        <mxCell id="ZOnOiDZ3vCkssA7ZhaMy-4" value="" style="ellipse;whiteSpace=wrap;html=1;aspect=fixed;" vertex="1" parent="1">
          <mxGeometry x="184" y="195" width="36" height="36" as="geometry" />
        </mxCell>
        <mxCell id="ZOnOiDZ3vCkssA7ZhaMy-5" value="" style="endArrow=none;html=1;rounded=0;fontSize=12;startSize=8;endSize=8;curved=1;exitX=0.5;exitY=0;exitDx=0;exitDy=0;" edge="1" parent="1" source="ZOnOiDZ3vCkssA7ZhaMy-8">
          <mxGeometry width="50" height="50" relative="1" as="geometry">
            <mxPoint x="130" y="309" as="sourcePoint" />
            <mxPoint x="180" y="259" as="targetPoint" />
          </mxGeometry>
        </mxCell>
        <mxCell id="ZOnOiDZ3vCkssA7ZhaMy-6" value="" style="endArrow=none;html=1;rounded=0;fontSize=12;startSize=8;endSize=8;curved=1;entryX=0.5;entryY=0;entryDx=0;entryDy=0;" edge="1" parent="1" target="ZOnOiDZ3vCkssA7ZhaMy-9">
          <mxGeometry width="50" height="50" relative="1" as="geometry">
            <mxPoint x="224" y="257" as="sourcePoint" />
            <mxPoint x="270" y="300" as="targetPoint" />
          </mxGeometry>
        </mxCell>
        <mxCell id="ZOnOiDZ3vCkssA7ZhaMy-7" value="C.Hidroléctrica" style="rounded=1;whiteSpace=wrap;html=1;fillColor=#d5e8d4;strokeColor=#82b366;" vertex="1" parent="1">
          <mxGeometry x="-30" y="296" width="120" height="51" as="geometry" />
        </mxCell>
        <mxCell id="ZOnOiDZ3vCkssA7ZhaMy-8" value="C.Solar" style="rounded=1;whiteSpace=wrap;html=1;fillColor=#d5e8d4;strokeColor=#82b366;" vertex="1" parent="1">
          <mxGeometry x="67" y="370" width="120" height="48" as="geometry" />
        </mxCell>
        <mxCell id="ZOnOiDZ3vCkssA7ZhaMy-9" value="C.Témica" style="rounded=1;whiteSpace=wrap;html=1;fillColor=#d5e8d4;strokeColor=#82b366;" vertex="1" parent="1">
          <mxGeometry x="262" y="365" width="120" height="51" as="geometry" />
        </mxCell>
        <mxCell id="ZOnOiDZ3vCkssA7ZhaMy-10" value="C.Nuclear" style="rounded=1;whiteSpace=wrap;html=1;fillColor=#d5e8d4;strokeColor=#82b366;" vertex="1" parent="1">
          <mxGeometry x="382" y="287" width="120" height="51" as="geometry" />
        </mxCell>
        <mxCell id="ZOnOiDZ3vCkssA7ZhaMy-11" value="" style="endArrow=none;html=1;rounded=0;fontSize=12;startSize=8;endSize=8;curved=1;exitX=0.5;exitY=0;exitDx=0;exitDy=0;" edge="1" parent="1" source="ZOnOiDZ3vCkssA7ZhaMy-7">
          <mxGeometry width="50" height="50" relative="1" as="geometry">
            <mxPoint x="117" y="285" as="sourcePoint" />
            <mxPoint x="167" y="235" as="targetPoint" />
          </mxGeometry>
        </mxCell>
        <mxCell id="ZOnOiDZ3vCkssA7ZhaMy-12" value="" style="endArrow=none;html=1;rounded=0;fontSize=12;startSize=8;endSize=8;curved=1;entryX=0;entryY=0.25;entryDx=0;entryDy=0;" edge="1" parent="1" target="ZOnOiDZ3vCkssA7ZhaMy-10">
          <mxGeometry width="50" height="50" relative="1" as="geometry">
            <mxPoint x="239" y="237" as="sourcePoint" />
            <mxPoint x="337" y="345" as="targetPoint" />
          </mxGeometry>
        </mxCell>
        <mxCell id="ZOnOiDZ3vCkssA7ZhaMy-13" value="Nombre" style="text;html=1;align=center;verticalAlign=middle;whiteSpace=wrap;rounded=0;fontSize=16;" vertex="1" parent="1">
          <mxGeometry x="117" y="26" width="60" height="30" as="geometry" />
        </mxCell>
        <mxCell id="ZOnOiDZ3vCkssA7ZhaMy-14" value="" style="endArrow=oval;html=1;rounded=0;fontSize=12;startSize=8;endSize=8;curved=1;entryX=0.5;entryY=1;entryDx=0;entryDy=0;endFill=1;" edge="1" parent="1">
          <mxGeometry width="50" height="50" relative="1" as="geometry">
            <mxPoint x="146.70999999999998" y="94" as="sourcePoint" />
            <mxPoint x="146.70999999999998" y="56" as="targetPoint" />
          </mxGeometry>
        </mxCell>
        <mxCell id="ZOnOiDZ3vCkssA7ZhaMy-15" value="Pr.medio" style="text;html=1;align=center;verticalAlign=middle;whiteSpace=wrap;rounded=0;fontSize=16;" vertex="1" parent="1">
          <mxGeometry x="232" y="26" width="60" height="30" as="geometry" />
        </mxCell>
        <mxCell id="ZOnOiDZ3vCkssA7ZhaMy-16" value="" style="endArrow=circle;html=1;rounded=0;fontSize=12;startSize=8;endSize=8;curved=1;entryX=0.5;entryY=1;entryDx=0;entryDy=0;endFill=0;" edge="1" parent="1">
          <mxGeometry width="50" height="50" relative="1" as="geometry">
            <mxPoint x="255.99999999999997" y="94" as="sourcePoint" />
            <mxPoint x="255.99999999999997" y="56" as="targetPoint" />
          </mxGeometry>
        </mxCell>
        <mxCell id="ZOnOiDZ3vCkssA7ZhaMy-17" value="Pr.máx" style="text;html=1;align=center;verticalAlign=middle;whiteSpace=wrap;rounded=0;fontSize=16;" vertex="1" parent="1">
          <mxGeometry x="299" y="83.5" width="60" height="30" as="geometry" />
        </mxCell>
        <mxCell id="ZOnOiDZ3vCkssA7ZhaMy-18" value="" style="endArrow=circle;html=1;rounded=0;fontSize=12;startSize=8;endSize=8;curved=1;entryX=0.5;entryY=1;entryDx=0;entryDy=0;endFill=0;exitX=1;exitY=0.5;exitDx=0;exitDy=0;" edge="1" parent="1" source="ZOnOiDZ3vCkssA7ZhaMy-2">
          <mxGeometry width="50" height="50" relative="1" as="geometry">
            <mxPoint x="328.71" y="151.5" as="sourcePoint" />
            <mxPoint x="328.71" y="113.5" as="targetPoint" />
          </mxGeometry>
        </mxCell>
        <mxCell id="ZOnOiDZ3vCkssA7ZhaMy-19" value="Fech_funcionamiento" style="text;html=1;align=center;verticalAlign=middle;whiteSpace=wrap;rounded=0;fontSize=16;" vertex="1" parent="1">
          <mxGeometry x="9" y="60" width="60" height="30" as="geometry" />
        </mxCell>
        <mxCell id="ZOnOiDZ3vCkssA7ZhaMy-20" value="" style="endArrow=circle;html=1;rounded=0;fontSize=12;startSize=8;endSize=8;curved=1;entryX=0.5;entryY=1;entryDx=0;entryDy=0;endFill=0;" edge="1" parent="1" source="ZOnOiDZ3vCkssA7ZhaMy-2">
          <mxGeometry width="50" height="50" relative="1" as="geometry">
            <mxPoint x="74.70999999999998" y="127" as="sourcePoint" />
            <mxPoint x="74.70999999999998" y="89" as="targetPoint" />
          </mxGeometry>
        </mxCell>
        <mxCell id="ZOnOiDZ3vCkssA7ZhaMy-21" value="Ocupación" style="text;html=1;align=center;verticalAlign=middle;whiteSpace=wrap;rounded=0;fontSize=16;" vertex="1" parent="1">
          <mxGeometry x="-56" y="232" width="60" height="30" as="geometry" />
        </mxCell>
        <mxCell id="ZOnOiDZ3vCkssA7ZhaMy-22" value="" style="endArrow=oval;html=1;rounded=0;fontSize=12;startSize=8;endSize=8;curved=1;entryX=0.5;entryY=1;entryDx=0;entryDy=0;endFill=1;" edge="1" parent="1">
          <mxGeometry width="50" height="50" relative="1" as="geometry">
            <mxPoint x="-26.29000000000002" y="300" as="sourcePoint" />
            <mxPoint x="-26.29000000000002" y="262" as="targetPoint" />
          </mxGeometry>
        </mxCell>
        <mxCell id="ZOnOiDZ3vCkssA7ZhaMy-23" value="Cap_máx" style="text;html=1;align=center;verticalAlign=middle;whiteSpace=wrap;rounded=0;fontSize=16;" vertex="1" parent="1">
          <mxGeometry x="-116" y="276" width="60" height="30" as="geometry" />
        </mxCell>
        <mxCell id="ZOnOiDZ3vCkssA7ZhaMy-24" value="" style="endArrow=circle;html=1;rounded=0;fontSize=12;startSize=8;endSize=8;curved=1;entryX=0.5;entryY=1;entryDx=0;entryDy=0;endFill=0;exitX=0;exitY=0.5;exitDx=0;exitDy=0;" edge="1" parent="1" source="ZOnOiDZ3vCkssA7ZhaMy-7">
          <mxGeometry width="50" height="50" relative="1" as="geometry">
            <mxPoint x="-86.29000000000002" y="344" as="sourcePoint" />
            <mxPoint x="-86.29000000000002" y="306" as="targetPoint" />
          </mxGeometry>
        </mxCell>
        <mxCell id="ZOnOiDZ3vCkssA7ZhaMy-26" value="Cap_mín" style="text;html=1;align=center;verticalAlign=middle;whiteSpace=wrap;rounded=0;fontSize=16;" vertex="1" parent="1">
          <mxGeometry x="-156" y="324" width="60" height="30" as="geometry" />
        </mxCell>
        <mxCell id="ZOnOiDZ3vCkssA7ZhaMy-27" value="" style="endArrow=circle;html=1;rounded=0;fontSize=12;startSize=8;endSize=8;curved=1;entryX=0.5;entryY=1;entryDx=0;entryDy=0;endFill=0;exitX=0;exitY=0.75;exitDx=0;exitDy=0;" edge="1" parent="1" source="ZOnOiDZ3vCkssA7ZhaMy-7">
          <mxGeometry width="50" height="50" relative="1" as="geometry">
            <mxPoint x="-101.29000000000002" y="398" as="sourcePoint" />
            <mxPoint x="-101.29000000000002" y="360" as="targetPoint" />
          </mxGeometry>
        </mxCell>
        <mxCell id="ZOnOiDZ3vCkssA7ZhaMy-28" value="Nº_turbinas" style="text;html=1;align=center;verticalAlign=middle;whiteSpace=wrap;rounded=0;fontSize=16;" vertex="1" parent="1">
          <mxGeometry x="-176" y="380.5" width="60" height="30" as="geometry" />
        </mxCell>
        <mxCell id="ZOnOiDZ3vCkssA7ZhaMy-29" value="" style="endArrow=circle;html=1;rounded=0;fontSize=12;startSize=8;endSize=8;curved=1;entryX=0.5;entryY=1;entryDx=0;entryDy=0;endFill=0;" edge="1" parent="1" source="ZOnOiDZ3vCkssA7ZhaMy-7">
          <mxGeometry width="50" height="50" relative="1" as="geometry">
            <mxPoint x="-114.29000000000002" y="454" as="sourcePoint" />
            <mxPoint x="-114.29000000000002" y="416" as="targetPoint" />
          </mxGeometry>
        </mxCell>
        <mxCell id="ZOnOiDZ3vCkssA7ZhaMy-41" value="Nº_placas" style="text;html=1;align=center;verticalAlign=middle;whiteSpace=wrap;rounded=0;fontSize=16;" vertex="1" parent="1">
          <mxGeometry x="-35" y="519" width="60" height="30" as="geometry" />
        </mxCell>
        <mxCell id="ZOnOiDZ3vCkssA7ZhaMy-42" value="" style="endArrow=circle;html=1;rounded=0;fontSize=12;startSize=8;endSize=8;curved=1;entryX=0.5;entryY=1;entryDx=0;entryDy=0;endFill=0;exitX=0.129;exitY=0.997;exitDx=0;exitDy=0;exitPerimeter=0;" edge="1" parent="1" source="ZOnOiDZ3vCkssA7ZhaMy-8">
          <mxGeometry width="50" height="50" relative="1" as="geometry">
            <mxPoint x="66.99699999999986" y="486.0020000000001" as="sourcePoint" />
            <mxPoint x="8.479999999999979" y="515.1800000000001" as="targetPoint" />
          </mxGeometry>
        </mxCell>
        <mxCell id="ZOnOiDZ3vCkssA7ZhaMy-60" value="Tipo" style="text;html=1;align=center;verticalAlign=middle;whiteSpace=wrap;rounded=0;fontSize=16;" vertex="1" parent="1">
          <mxGeometry x="62" y="564" width="60" height="30" as="geometry" />
        </mxCell>
        <mxCell id="ZOnOiDZ3vCkssA7ZhaMy-61" value="" style="endArrow=circle;html=1;rounded=0;fontSize=12;startSize=8;endSize=8;curved=1;endFill=0;" edge="1" parent="1">
          <mxGeometry width="50" height="50" relative="1" as="geometry">
            <mxPoint x="116" y="420" as="sourcePoint" />
            <mxPoint x="127" y="611" as="targetPoint" />
          </mxGeometry>
        </mxCell>
        <mxCell id="ZOnOiDZ3vCkssA7ZhaMy-62" value="" style="endArrow=classic;html=1;rounded=0;fontSize=12;startSize=8;endSize=8;curved=1;exitX=0.4;exitY=1.021;exitDx=0;exitDy=0;exitPerimeter=0;" edge="1" parent="1" source="ZOnOiDZ3vCkssA7ZhaMy-8">
          <mxGeometry width="50" height="50" relative="1" as="geometry">
            <mxPoint x="102" y="606" as="sourcePoint" />
            <mxPoint x="125" y="597" as="targetPoint" />
          </mxGeometry>
        </mxCell>
        <mxCell id="ZOnOiDZ3vCkssA7ZhaMy-63" value="" style="endArrow=circle;html=1;rounded=0;fontSize=12;startSize=8;endSize=8;curved=1;endFill=0;" edge="1" parent="1">
          <mxGeometry width="50" height="50" relative="1" as="geometry">
            <mxPoint x="119" y="610" as="sourcePoint" />
            <mxPoint x="67" y="635" as="targetPoint" />
          </mxGeometry>
        </mxCell>
        <mxCell id="ZOnOiDZ3vCkssA7ZhaMy-64" value="" style="endArrow=circle;html=1;rounded=0;fontSize=12;startSize=8;endSize=8;curved=1;endFill=0;" edge="1" parent="1">
          <mxGeometry width="50" height="50" relative="1" as="geometry">
            <mxPoint x="132" y="605" as="sourcePoint" />
            <mxPoint x="181" y="622" as="targetPoint" />
          </mxGeometry>
        </mxCell>
        <mxCell id="ZOnOiDZ3vCkssA7ZhaMy-65" value="Termodinámica" style="text;html=1;align=center;verticalAlign=middle;whiteSpace=wrap;rounded=0;fontSize=16;" vertex="1" parent="1">
          <mxGeometry x="155" y="629" width="60" height="30" as="geometry" />
        </mxCell>
        <mxCell id="ZOnOiDZ3vCkssA7ZhaMy-66" value="Fotovoltáica" style="text;html=1;align=center;verticalAlign=middle;whiteSpace=wrap;rounded=0;fontSize=16;" vertex="1" parent="1">
          <mxGeometry x="25" y="648" width="60" height="30" as="geometry" />
        </mxCell>
        <mxCell id="ZOnOiDZ3vCkssA7ZhaMy-68" value="Horas_sol" style="text;html=1;align=center;verticalAlign=middle;whiteSpace=wrap;rounded=0;fontSize=16;" vertex="1" parent="1">
          <mxGeometry x="202" y="575" width="60" height="30" as="geometry" />
        </mxCell>
        <mxCell id="ZOnOiDZ3vCkssA7ZhaMy-69" value="" style="endArrow=circle;html=1;rounded=0;fontSize=12;startSize=8;endSize=8;curved=1;endFill=0;exitX=0.75;exitY=1;exitDx=0;exitDy=0;" edge="1" parent="1" source="ZOnOiDZ3vCkssA7ZhaMy-8">
          <mxGeometry width="50" height="50" relative="1" as="geometry">
            <mxPoint x="129.00000000000003" y="323.99599999999987" as="sourcePoint" />
            <mxPoint x="209.28" y="568.5" as="targetPoint" />
          </mxGeometry>
        </mxCell>
        <mxCell id="ZOnOiDZ3vCkssA7ZhaMy-70" value="Nº_hornos" style="text;html=1;align=center;verticalAlign=middle;whiteSpace=wrap;rounded=0;fontSize=16;" vertex="1" parent="1">
          <mxGeometry x="230" y="476" width="60" height="30" as="geometry" />
        </mxCell>
        <mxCell id="ZOnOiDZ3vCkssA7ZhaMy-71" value="" style="endArrow=circle;html=1;rounded=0;fontSize=12;startSize=8;endSize=8;curved=1;entryX=0.5;entryY=1;entryDx=0;entryDy=0;endFill=0;exitX=0.354;exitY=0.944;exitDx=0;exitDy=0;exitPerimeter=0;" edge="1" parent="1" source="ZOnOiDZ3vCkssA7ZhaMy-9">
          <mxGeometry width="50" height="50" relative="1" as="geometry">
            <mxPoint x="280" y="423" as="sourcePoint" />
            <mxPoint x="261.71" y="478.5" as="targetPoint" />
          </mxGeometry>
        </mxCell>
        <mxCell id="ZOnOiDZ3vCkssA7ZhaMy-73" value="Carbón_consumido" style="text;html=1;align=center;verticalAlign=middle;whiteSpace=wrap;rounded=0;fontSize=16;" vertex="1" parent="1">
          <mxGeometry x="326" y="522" width="60" height="30" as="geometry" />
        </mxCell>
        <mxCell id="ZOnOiDZ3vCkssA7ZhaMy-74" value="" style="endArrow=circle;html=1;rounded=0;fontSize=12;startSize=8;endSize=8;curved=1;entryX=0.402;entryY=-0.01;entryDx=0;entryDy=0;endFill=0;exitX=0.5;exitY=1;exitDx=0;exitDy=0;entryPerimeter=0;" edge="1" parent="1" source="ZOnOiDZ3vCkssA7ZhaMy-9" target="ZOnOiDZ3vCkssA7ZhaMy-73">
          <mxGeometry width="50" height="50" relative="1" as="geometry">
            <mxPoint x="384" y="435" as="sourcePoint" />
            <mxPoint x="365.71" y="490.5" as="targetPoint" />
          </mxGeometry>
        </mxCell>
        <mxCell id="ZOnOiDZ3vCkssA7ZhaMy-75" value="Emisión_gases" style="text;html=1;align=center;verticalAlign=middle;whiteSpace=wrap;rounded=0;fontSize=16;" vertex="1" parent="1">
          <mxGeometry x="401" y="482" width="60" height="30" as="geometry" />
        </mxCell>
        <mxCell id="ZOnOiDZ3vCkssA7ZhaMy-76" value="" style="endArrow=circle;html=1;rounded=0;fontSize=12;startSize=8;endSize=8;curved=1;entryX=0.5;entryY=1;entryDx=0;entryDy=0;endFill=0;exitX=0.987;exitY=0.854;exitDx=0;exitDy=0;exitPerimeter=0;" edge="1" parent="1" source="ZOnOiDZ3vCkssA7ZhaMy-9">
          <mxGeometry width="50" height="50" relative="1" as="geometry">
            <mxPoint x="385.99999999999983" y="395.996" as="sourcePoint" />
            <mxPoint x="422.75" y="480.23" as="targetPoint" />
          </mxGeometry>
        </mxCell>
        <mxCell id="ZOnOiDZ3vCkssA7ZhaMy-77" value="SUMINISTRADOR" style="rounded=1;whiteSpace=wrap;html=1;fillColor=#d5e8d4;strokeColor=#82b366;" vertex="1" parent="1">
          <mxGeometry x="509" y="49.5" width="120" height="51" as="geometry" />
        </mxCell>
        <mxCell id="ZOnOiDZ3vCkssA7ZhaMy-124" style="edgeStyle=none;curved=1;rounded=0;orthogonalLoop=1;jettySize=auto;html=1;fontSize=12;startSize=8;endSize=8;" edge="1" parent="1" source="ZOnOiDZ3vCkssA7ZhaMy-82" target="ZOnOiDZ3vCkssA7ZhaMy-122">
          <mxGeometry relative="1" as="geometry" />
        </mxCell>
        <mxCell id="ZOnOiDZ3vCkssA7ZhaMy-82" value="TRANSPORTISTA" style="rounded=1;whiteSpace=wrap;html=1;fillColor=#d5e8d4;strokeColor=#82b366;" vertex="1" parent="1">
          <mxGeometry x="794" y="49" width="120" height="51" as="geometry" />
        </mxCell>
        <mxCell id="ZOnOiDZ3vCkssA7ZhaMy-94" style="edgeStyle=none;curved=1;rounded=0;orthogonalLoop=1;jettySize=auto;html=1;fontSize=12;startSize=8;endSize=8;exitX=0.437;exitY=0.911;exitDx=0;exitDy=0;exitPerimeter=0;" edge="1" parent="1" source="ZOnOiDZ3vCkssA7ZhaMy-122" target="ZOnOiDZ3vCkssA7ZhaMy-10">
          <mxGeometry relative="1" as="geometry">
            <mxPoint x="591" y="312.5" as="sourcePoint" />
          </mxGeometry>
        </mxCell>
        <mxCell id="ZOnOiDZ3vCkssA7ZhaMy-96" value="1:1" style="text;html=1;align=center;verticalAlign=middle;whiteSpace=wrap;rounded=0;fontSize=16;" vertex="1" parent="1">
          <mxGeometry x="601" y="361" width="60" height="30" as="geometry" />
        </mxCell>
        <mxCell id="ZOnOiDZ3vCkssA7ZhaMy-104" value="Nombre" style="text;html=1;align=center;verticalAlign=middle;whiteSpace=wrap;rounded=0;fontSize=16;" vertex="1" parent="1">
          <mxGeometry x="914" y="9" width="60" height="30" as="geometry" />
        </mxCell>
        <mxCell id="ZOnOiDZ3vCkssA7ZhaMy-105" value="" style="endArrow=circle;html=1;rounded=0;fontSize=12;startSize=8;endSize=8;curved=1;entryX=0.5;entryY=1;entryDx=0;entryDy=0;endFill=0;" edge="1" parent="1">
          <mxGeometry width="50" height="50" relative="1" as="geometry">
            <mxPoint x="905" y="49.5" as="sourcePoint" />
            <mxPoint x="905" y="11.5" as="targetPoint" />
          </mxGeometry>
        </mxCell>
        <mxCell id="ZOnOiDZ3vCkssA7ZhaMy-106" value="Matrícula" style="text;html=1;align=center;verticalAlign=middle;whiteSpace=wrap;rounded=0;fontSize=16;" vertex="1" parent="1">
          <mxGeometry x="947" y="59.5" width="54" height="30" as="geometry" />
        </mxCell>
        <mxCell id="ZOnOiDZ3vCkssA7ZhaMy-107" value="" style="endArrow=oval;html=1;rounded=0;fontSize=12;startSize=8;endSize=8;curved=1;entryX=0.5;entryY=1;entryDx=0;entryDy=0;endFill=1;exitX=1;exitY=0.91;exitDx=0;exitDy=0;exitPerimeter=0;" edge="1" parent="1" source="ZOnOiDZ3vCkssA7ZhaMy-82">
          <mxGeometry width="50" height="50" relative="1" as="geometry">
            <mxPoint x="976.71" y="127.5" as="sourcePoint" />
            <mxPoint x="976.71" y="89.5" as="targetPoint" />
          </mxGeometry>
        </mxCell>
        <mxCell id="ZOnOiDZ3vCkssA7ZhaMy-108" value="" style="endArrow=circle;html=1;rounded=0;fontSize=12;startSize=8;endSize=8;curved=1;entryX=0.5;entryY=1;entryDx=0;entryDy=0;endFill=0;exitX=0.987;exitY=0.854;exitDx=0;exitDy=0;exitPerimeter=0;" edge="1" parent="1">
          <mxGeometry width="50" height="50" relative="1" as="geometry">
            <mxPoint x="404" y="339.27" as="sourcePoint" />
            <mxPoint x="446.75" y="410.5" as="targetPoint" />
          </mxGeometry>
        </mxCell>
        <mxCell id="ZOnOiDZ3vCkssA7ZhaMy-109" value="Nº_reactores" style="text;html=1;align=center;verticalAlign=middle;whiteSpace=wrap;rounded=0;fontSize=16;" vertex="1" parent="1">
          <mxGeometry x="438" y="408" width="60" height="30" as="geometry" />
        </mxCell>
        <mxCell id="ZOnOiDZ3vCkssA7ZhaMy-110" value="Nombre" style="text;html=1;align=center;verticalAlign=middle;whiteSpace=wrap;rounded=0;fontSize=16;" vertex="1" parent="1">
          <mxGeometry x="488" y="-14" width="60" height="30" as="geometry" />
        </mxCell>
        <mxCell id="ZOnOiDZ3vCkssA7ZhaMy-111" value="" style="endArrow=oval;html=1;rounded=0;fontSize=12;startSize=8;endSize=8;curved=1;entryX=0.5;entryY=1;entryDx=0;entryDy=0;endFill=1;" edge="1" parent="1">
          <mxGeometry width="50" height="50" relative="1" as="geometry">
            <mxPoint x="517.71" y="54" as="sourcePoint" />
            <mxPoint x="517.71" y="16" as="targetPoint" />
          </mxGeometry>
        </mxCell>
        <mxCell id="ZOnOiDZ3vCkssA7ZhaMy-112" value="País" style="text;html=1;align=center;verticalAlign=middle;whiteSpace=wrap;rounded=0;fontSize=16;" vertex="1" parent="1">
          <mxGeometry x="592" y="-18.5" width="60" height="30" as="geometry" />
        </mxCell>
        <mxCell id="ZOnOiDZ3vCkssA7ZhaMy-113" value="" style="endArrow=circle;html=1;rounded=0;fontSize=12;startSize=8;endSize=8;curved=1;entryX=0.5;entryY=1;entryDx=0;entryDy=0;endFill=0;" edge="1" parent="1">
          <mxGeometry width="50" height="50" relative="1" as="geometry">
            <mxPoint x="621.71" y="49.5" as="sourcePoint" />
            <mxPoint x="621.71" y="11.5" as="targetPoint" />
          </mxGeometry>
        </mxCell>
        <mxCell id="ZOnOiDZ3vCkssA7ZhaMy-114" value="" style="endArrow=circle;html=1;rounded=0;fontSize=12;startSize=8;endSize=8;curved=1;endFill=0;exitX=0.987;exitY=0.854;exitDx=0;exitDy=0;exitPerimeter=0;" edge="1" parent="1">
          <mxGeometry width="50" height="50" relative="1" as="geometry">
            <mxPoint x="442" y="338" as="sourcePoint" />
            <mxPoint x="469" y="368" as="targetPoint" />
          </mxGeometry>
        </mxCell>
        <mxCell id="ZOnOiDZ3vCkssA7ZhaMy-115" value="Plutonio_consumido" style="text;html=1;align=center;verticalAlign=middle;whiteSpace=wrap;rounded=0;fontSize=16;" vertex="1" parent="1">
          <mxGeometry x="477" y="365" width="60" height="30" as="geometry" />
        </mxCell>
        <mxCell id="ZOnOiDZ3vCkssA7ZhaMy-117" value="" style="endArrow=circle;html=1;rounded=0;fontSize=12;startSize=8;endSize=8;curved=1;endFill=0;exitX=0;exitY=0;exitDx=0;exitDy=0;" edge="1" parent="1" source="ZOnOiDZ3vCkssA7ZhaMy-10">
          <mxGeometry width="50" height="50" relative="1" as="geometry">
            <mxPoint x="330" y="280" as="sourcePoint" />
            <mxPoint x="364" y="229" as="targetPoint" />
          </mxGeometry>
        </mxCell>
        <mxCell id="ZOnOiDZ3vCkssA7ZhaMy-118" value="Cantidad_residuos" style="text;html=1;align=center;verticalAlign=middle;whiteSpace=wrap;rounded=0;fontSize=16;" vertex="1" parent="1">
          <mxGeometry x="305" y="198" width="60" height="30" as="geometry" />
        </mxCell>
        <mxCell id="ZOnOiDZ3vCkssA7ZhaMy-122" value="Hacer pedido" style="rhombus;whiteSpace=wrap;html=1;" vertex="1" parent="1">
          <mxGeometry x="671" y="140" width="101" height="95" as="geometry" />
        </mxCell>
        <mxCell id="ZOnOiDZ3vCkssA7ZhaMy-123" style="edgeStyle=none;curved=1;rounded=0;orthogonalLoop=1;jettySize=auto;html=1;entryX=0;entryY=0;entryDx=0;entryDy=0;fontSize=12;startSize=8;endSize=8;" edge="1" parent="1" source="ZOnOiDZ3vCkssA7ZhaMy-77" target="ZOnOiDZ3vCkssA7ZhaMy-122">
          <mxGeometry relative="1" as="geometry" />
        </mxCell>
        <mxCell id="ZOnOiDZ3vCkssA7ZhaMy-126" value="Cantidad_pedido" style="text;html=1;align=center;verticalAlign=middle;whiteSpace=wrap;rounded=0;fontSize=16;" vertex="1" parent="1">
          <mxGeometry x="820" y="186" width="60" height="30" as="geometry" />
        </mxCell>
        <mxCell id="ZOnOiDZ3vCkssA7ZhaMy-127" value="" style="endArrow=circle;html=1;rounded=0;fontSize=12;startSize=8;endSize=8;curved=1;entryX=0.5;entryY=1;entryDx=0;entryDy=0;endFill=0;exitX=0.84;exitY=0.686;exitDx=0;exitDy=0;exitPerimeter=0;" edge="1" parent="1" source="ZOnOiDZ3vCkssA7ZhaMy-122">
          <mxGeometry width="50" height="50" relative="1" as="geometry">
            <mxPoint x="833.71" y="259" as="sourcePoint" />
            <mxPoint x="833.71" y="221" as="targetPoint" />
          </mxGeometry>
        </mxCell>
        <mxCell id="ZOnOiDZ3vCkssA7ZhaMy-130" value="Feche_compra" style="text;html=1;align=center;verticalAlign=middle;whiteSpace=wrap;rounded=0;fontSize=16;" vertex="1" parent="1">
          <mxGeometry x="578" y="168" width="60" height="30" as="geometry" />
        </mxCell>
        <mxCell id="ZOnOiDZ3vCkssA7ZhaMy-131" value="" style="endArrow=circle;html=1;rounded=0;fontSize=12;startSize=8;endSize=8;curved=1;entryX=0.5;entryY=1;entryDx=0;entryDy=0;endFill=0;exitX=0.076;exitY=0.577;exitDx=0;exitDy=0;exitPerimeter=0;" edge="1" parent="1" source="ZOnOiDZ3vCkssA7ZhaMy-122">
          <mxGeometry width="50" height="50" relative="1" as="geometry">
            <mxPoint x="619.71" y="241" as="sourcePoint" />
            <mxPoint x="619.71" y="203" as="targetPoint" />
          </mxGeometry>
        </mxCell>
        <mxCell id="ZOnOiDZ3vCkssA7ZhaMy-134" value="N:M:P" style="text;html=1;align=center;verticalAlign=middle;whiteSpace=wrap;rounded=0;fontSize=16;" vertex="1" parent="1">
          <mxGeometry x="691.5" y="240" width="60" height="30" as="geometry" />
        </mxCell>
        <mxCell id="ZOnOiDZ3vCkssA7ZhaMy-135" value="(1,n)" style="text;html=1;align=center;verticalAlign=middle;whiteSpace=wrap;rounded=0;fontSize=16;" vertex="1" parent="1">
          <mxGeometry x="799" y="106" width="60" height="30" as="geometry" />
        </mxCell>
        <mxCell id="ZOnOiDZ3vCkssA7ZhaMy-136" value="(1,n)" style="text;html=1;align=center;verticalAlign=middle;whiteSpace=wrap;rounded=0;fontSize=16;" vertex="1" parent="1">
          <mxGeometry x="556" y="100" width="60" height="30" as="geometry" />
        </mxCell>
        <mxCell id="ZOnOiDZ3vCkssA7ZhaMy-137" value="(1,n)" style="text;html=1;align=center;verticalAlign=middle;whiteSpace=wrap;rounded=0;fontSize=16;" vertex="1" parent="1">
          <mxGeometry x="496" y="300" width="60" height="30" as="geometry" />
        </mxCell>
      </root>
    </mxGraphModel>
  </diagram>
</mxfile>
